<svg width="48" height="48" viewBox="0 0 48 48" fill="none" xmlns="http://www.w3.org/2000/svg">
<g clip-path="url(#clip0_442_131)">
<path d="M39.0012 10.5008V19.5008C39.0012 19.8986 38.8432 20.2801 38.5618 20.5614C38.2805 20.8427 37.899 21.0008 37.5012 21.0008C37.1034 21.0008 36.7218 20.8427 36.4405 20.5614C36.1592 20.2801 36.0012 19.8986 36.0012 19.5008V14.1308L29.5512 20.5808C29.2683 20.854 28.8894 21.0052 28.4961 21.0018C28.1028 20.9984 27.7266 20.8406 27.4485 20.5625C27.1703 20.2844 27.0126 19.9082 27.0092 19.5149C27.0058 19.1216 27.157 18.7427 27.4302 18.4598L33.8802 12.0098H28.5102C28.1124 12.0098 27.7308 11.8517 27.4495 11.5704C27.1682 11.2891 27.0102 10.9076 27.0102 10.5098C27.0102 10.1119 27.1682 9.73041 27.4495 9.44911C27.7308 9.1678 28.1124 9.00977 28.5102 9.00977H37.5102C37.9043 9.00984 38.2826 9.16502 38.5632 9.44177L38.5752 9.45377C38.8498 9.73216 39.0048 10.1068 39.0072 10.4978V10.5098L39.0012 10.5008ZM10.5012 27.0008C10.899 27.0008 11.2805 27.1588 11.5618 27.4401C11.8432 27.7214 12.0012 28.1029 12.0012 28.5008V33.8708L18.4512 27.4208C18.7341 27.1475 19.113 26.9963 19.5063 26.9998C19.8996 27.0032 20.2758 27.1609 20.5539 27.439C20.832 27.7171 20.9898 28.0934 20.9932 28.4867C20.9966 28.88 20.8454 29.2589 20.5722 29.5418L14.1222 35.9918H19.4922C19.89 35.9918 20.2715 36.1498 20.5528 36.4311C20.8342 36.7124 20.9922 37.0939 20.9922 37.4918C20.9922 37.8896 20.8342 38.2711 20.5528 38.5524C20.2715 38.8337 19.89 38.9918 19.4922 38.9918H10.4832C10.0874 38.9894 9.70867 38.8307 9.4294 38.5503C9.15012 38.2699 8.99297 37.8905 8.99219 37.4948V28.4948C8.99219 28.0969 9.15022 27.7154 9.43153 27.4341C9.71283 27.1528 10.0944 26.9948 10.4922 26.9948L10.5012 27.0008Z" fill="white"/>
<path fill-rule="evenodd" clip-rule="evenodd" d="M0 14.4008C0 9.36077 0 6.84077 0.981 4.92077C1.84691 3.23138 3.22162 1.85668 4.911 0.990766C6.837 0.00976571 9.351 0.00976562 14.391 0.00976562H33.591C38.631 0.00976562 41.151 0.00976571 43.071 0.990766C44.7604 1.85668 46.1351 3.23138 47.001 4.92077C47.982 6.84677 47.982 9.36077 47.982 14.4008V33.6008C47.982 38.6408 47.982 41.1608 47.001 43.0808C46.1384 44.7726 44.7628 46.1482 43.071 47.0108C41.145 47.9918 38.631 47.9918 33.591 47.9918H14.391C9.351 47.9918 6.831 47.9918 4.911 47.0108C3.21919 46.1482 1.84357 44.7726 0.981 43.0808C0 41.1548 0 38.6408 0 33.6008V14.4008ZM14.4 3.00077H33.6C36.171 3.00077 37.92 3.00077 39.27 3.11477C40.584 3.21977 41.259 3.41477 41.727 3.65477C42.855 4.23077 43.773 5.14877 44.349 6.27677C44.589 6.74477 44.784 7.41677 44.889 8.73377C45 10.0838 45.003 11.8238 45.003 14.4038V33.6038C45.003 36.1748 45 37.9238 44.889 39.2738C44.781 40.5878 44.586 41.2628 44.349 41.7308C43.7738 42.8597 42.8559 43.7775 41.727 44.3528C41.259 44.5928 40.584 44.7878 39.27 44.8928C37.92 45.0008 36.18 45.0038 33.6 45.0038H14.4C11.829 45.0038 10.08 45.0038 8.73 44.8928C7.416 44.7848 6.741 44.5898 6.273 44.3528C5.14408 43.7775 4.22623 42.8597 3.651 41.7308C3.411 41.2628 3.216 40.5878 3.111 39.2708C3 37.9208 2.997 36.1808 2.997 33.6008V14.4008C2.997 11.8328 3 10.0808 3.111 8.73077C3.219 7.41977 3.414 6.74477 3.651 6.27677C4.227 5.14877 5.145 4.23077 6.273 3.65477C6.741 3.41477 7.416 3.21977 8.73 3.11477C10.08 3.00077 11.82 3.00077 14.4 3.00077Z" fill="white"/>
</g>
<defs>
<clipPath id="clip0_442_131">
<rect width="48" height="48" fill="white"/>
</clipPath>
</defs>
</svg>
